<mxfile host="app.diagrams.net" modified="2023-07-26T09:13:32.301Z" agent="Mozilla/5.0 (Windows NT 10.0; Win64; x64) AppleWebKit/537.36 (KHTML, like Gecko) Chrome/115.0.0.0 Safari/537.36" version="21.6.6" etag="BWDmx3SxH3geGdLpkgI0" type="github">
  <diagram name="Page-1" id="aAD2uuxVQRVzAruqQggt">
    <mxGraphModel>
      <root>
        <mxCell id="0" />
        <mxCell id="1" parent="0" />
      </root>
    </mxGraphModel>
  </diagram>
</mxfile>
